<?xml version="1.0" standalone="no"?>
<!DOCTYPE svg PUBLIC "-//W3C//DTD SVG 20010904//EN"
 "http://www.w3.org/TR/2001/REC-SVG-20010904/DTD/svg10.dtd">
<svg version="1.0" xmlns="http://www.w3.org/2000/svg"
 width="128.000000pt" height="128.000000pt" viewBox="0 0 128.000000 128.000000"
 preserveAspectRatio="xMidYMid meet">
<metadata>
Created by potrace 1.14, written by Peter Selinger 2001-2017
</metadata>
<g transform="translate(0.000000,128.000000) scale(0.100000,-0.100000)"
fill="#000000" stroke="none">
<path d="M498 1101 c-206 -67 -338 -248 -338 -461 0 -151 68 -289 187 -381 98
-75 156 -93 293 -93 137 0 195 18 293 93 250 192 250 570 0 762 -89 68 -157
92 -278 96 -78 2 -113 -1 -157 -16z m306 -99 c91 -42 149 -100 194 -190 35
-72 37 -81 37 -172 0 -91 -2 -100 -37 -172 -45 -91 -103 -147 -196 -191 -61
-29 -76 -32 -162 -32 -86 0 -101 3 -162 32 -93 44 -151 100 -196 191 -35 72
-37 81 -37 171 0 87 3 102 32 163 40 85 97 147 172 186 78 42 122 52 213 48
61 -3 92 -11 142 -34z"/>
<path d="M617 954 c-4 -4 -7 -92 -7 -196 0 -156 3 -190 15 -194 22 -9 265 162
265 186 0 38 -25 31 -126 -39 l-103 -71 -3 157 c-3 133 -5 158 -18 161 -9 1
-19 0 -23 -4z"/>
</g>
</svg>
